<svg width="45" height="10" viewBox="0 0 45 10" fill="none" xmlns="http://www.w3.org/2000/svg">
<path d="M4.83084 0.360001C3.51275 0.360001 2.38661 0.795802 1.46523 1.68022C0.556639 2.56464 0.0959473 3.66696 0.0959473 4.98718C0.0959473 6.3074 0.556639 7.40972 1.46523 8.29414C2.38661 9.16575 3.51275 9.60155 4.83084 9.60155C6.22571 9.60155 7.50541 8.99912 8.37561 7.9737L7.30066 7.03801C6.67361 7.78144 5.8418 8.15315 4.83084 8.15315C3.93505 8.15315 3.18002 7.85834 2.57857 7.25591C1.97711 6.65348 1.68278 5.89724 1.68278 4.98718C1.68278 4.07713 1.97711 3.32088 2.57857 2.71845C3.18002 2.11602 3.93505 1.8084 4.83084 1.8084C5.81621 1.8084 6.63521 2.16729 7.27506 2.8979L8.36281 1.96221C7.42863 0.898343 6.25131 0.360001 4.83084 0.360001Z" fill="white" fill-opacity="0.87"/>
<path d="M9.86496 8.65304C10.5432 9.30674 11.375 9.64 12.3604 9.64C13.3457 9.64 14.1775 9.30674 14.8558 8.65304C15.534 7.99934 15.8795 7.17901 15.8795 6.21768C15.8795 5.25635 15.534 4.43602 14.8558 3.78232C14.1775 3.12862 13.3457 2.79536 12.3604 2.79536C11.375 2.79536 10.5432 3.12862 9.86496 3.78232C9.18672 4.43602 8.8412 5.25635 8.8412 6.21768C8.8412 7.17901 9.18672 7.99934 9.86496 8.65304ZM12.3604 8.24287C11.7845 8.24287 11.311 8.05061 10.9271 7.66608C10.556 7.26873 10.364 6.79448 10.364 6.21768C10.364 5.64088 10.556 5.16663 10.9271 4.7821C11.311 4.38475 11.7845 4.19249 12.3604 4.19249C12.9234 4.19249 13.3969 4.38475 13.7808 4.7821C14.1648 5.16663 14.3567 5.64088 14.3567 6.21768C14.3567 6.79448 14.1648 7.26873 13.7808 7.66608C13.3969 8.05061 12.9234 8.24287 12.3604 8.24287Z" fill="white" fill-opacity="0.87"/>
<path d="M18.4812 9.44774V6.05105C18.4812 4.98718 19.1595 4.32066 20.2216 4.32066C20.452 4.32066 20.6695 4.3463 20.8615 4.38475V2.8979C20.7335 2.87227 20.5799 2.85945 20.4008 2.85945C19.4922 2.85945 18.7884 3.26961 18.4812 3.94895V2.98763H16.9584V9.44774H18.4812Z" fill="white" fill-opacity="0.87"/>
<path d="M21.2383 6.26895C21.2383 7.28155 21.5582 8.08906 22.1853 8.69149C22.8123 9.29392 23.6441 9.60155 24.6551 9.60155C25.7428 9.60155 26.6386 9.21702 27.3681 8.44796L26.4467 7.55072C25.9476 8.05061 25.3717 8.29414 24.7063 8.29414C23.5673 8.29414 22.8123 7.62762 22.7611 6.60221H27.7776C27.7904 6.43558 27.8032 6.25613 27.8032 6.06387C27.8032 5.141 27.5088 4.37193 26.9074 3.74387C26.3187 3.1158 25.5509 2.80818 24.6167 2.80818C23.6313 2.80818 22.8251 3.1158 22.1853 3.74387C21.5582 4.37193 21.2383 5.19227 21.2383 6.21768V6.26895ZM22.7995 5.52553C22.8379 5.12818 23.0299 4.79492 23.3754 4.52575C23.7209 4.25658 24.1432 4.11558 24.6167 4.11558C25.0646 4.11558 25.4357 4.25658 25.7556 4.53856C26.0756 4.80774 26.2419 5.141 26.2419 5.52553H22.7995Z" fill="white" fill-opacity="0.87"/>
<path d="M32.337 9.44774C33.8086 9.44774 34.9604 9.03757 35.7794 8.23006C36.5984 7.42254 37.0079 6.34586 37.0079 5C37.0079 3.65414 36.5984 2.57746 35.7666 1.75713C34.9476 0.923979 33.7958 0.513813 32.3242 0.513813H29.1377V9.44774H32.337ZM30.7374 1.96221H32.209C34.4485 1.96221 35.4083 3.1158 35.4083 5C35.4083 6.83293 34.4357 7.99934 32.2218 7.99934H30.7374V1.96221Z" fill="white" fill-opacity="0.87"/>
<path d="M42.183 9.44774C42.9636 9.44774 43.6035 9.2042 44.1153 8.70431C44.64 8.20442 44.8959 7.56354 44.8959 6.80729C44.8959 5.66652 44.2433 4.79492 43.1044 4.58984C43.821 4.32066 44.2433 3.65414 44.2433 2.79536C44.2433 2.14166 44.0002 1.5905 43.5139 1.16751C43.0404 0.731714 42.4517 0.513813 41.7479 0.513813H38.523V9.44774H42.183ZM40.1227 1.96221H41.5431C42.2086 1.96221 42.6821 2.41083 42.6821 3.01326C42.6821 3.66696 42.2086 4.11558 41.5303 4.11558H40.1227V1.96221ZM40.1227 5.46144H41.9015C42.7205 5.46144 43.3091 5.99978 43.3091 6.71757C43.3091 7.44818 42.7205 7.99934 41.9142 7.99934H40.1227V5.46144Z" fill="white" fill-opacity="0.87"/>
</svg>
