<svg width="20" height="20" viewBox="0 0 20 20" fill="none" xmlns="http://www.w3.org/2000/svg">
<path d="M10 0.399994C4.69842 0.399994 0.400024 4.69839 0.400024 9.99999C0.400024 14.4984 3.49762 18.2624 7.67362 19.304C7.62882 19.1744 7.60002 19.024 7.60002 18.8376V17.1968C7.21042 17.1968 6.55762 17.1968 6.39362 17.1968C5.73682 17.1968 5.15282 16.9144 4.86962 16.3896C4.55522 15.8064 4.50082 14.9144 3.72162 14.3688C3.49042 14.1872 3.66642 13.98 3.93282 14.008C4.42482 14.1472 4.83282 14.4848 5.21682 14.9856C5.59922 15.4872 5.77922 15.6008 6.49362 15.6008C6.84002 15.6008 7.35842 15.5808 7.84642 15.504C8.10882 14.8376 8.56242 14.224 9.11682 13.9344C5.92002 13.6056 4.39442 12.0152 4.39442 9.85599C4.39442 8.92639 4.79042 8.02719 5.46322 7.26959C5.24242 6.51759 4.96482 4.98399 5.54802 4.39999C6.98642 4.39999 7.85602 5.33279 8.06482 5.58479C8.78162 5.33919 9.56882 5.19999 10.396 5.19999C11.2248 5.19999 12.0152 5.33919 12.7336 5.58639C12.94 5.33599 13.8104 4.39999 15.252 4.39999C15.8376 4.98479 15.5568 6.52479 15.3336 7.27519C16.0024 8.03119 16.396 8.92799 16.396 9.85599C16.396 12.0136 14.8728 13.6032 11.6808 13.9336C12.5592 14.392 13.2 15.68 13.2 16.6504V18.8376C13.2 18.9208 13.1816 18.9808 13.172 19.052C16.9128 17.7408 19.6 14.1888 19.6 9.99999C19.6 4.69839 15.3016 0.399994 10 0.399994Z" fill="white"/>
</svg>
