<svg width="16" height="16" viewBox="0 0 16 16" fill="none" xmlns="http://www.w3.org/2000/svg">
<path d="M16 8.03325C16 8.88478 15.8679 9.70567 15.6234 10.4757C15.4117 11.1434 15.1152 11.7734 14.7464 12.3522C13.501 14.31 11.4337 15.6895 9.03256 16V14.8989C10.9991 14.6033 12.6947 13.4761 13.7533 11.8851C14.1332 11.3134 14.4313 10.682 14.63 10.0079C14.8149 9.38209 14.9139 8.71926 14.9139 8.03325C14.9139 7.34725 14.8149 6.68441 14.63 6.05857L15.6234 5.59077C15.8679 6.36084 16 7.18173 16 8.03325ZM13.866 9.6485C14.0063 9.134 14.0811 8.59222 14.0811 8.03325C14.0811 7.47429 14.0063 6.93251 13.866 6.41801C13.6807 5.73761 13.3812 5.10467 12.989 4.54122C12.0774 3.23012 10.6664 2.29527 9.03256 2.01467V3.10233C10.2411 3.35641 11.29 4.04689 12.0078 5.00266C12.4205 5.55154 12.7233 6.18822 12.8848 6.87945C12.9712 7.2501 13.0169 7.63645 13.0169 8.03325C13.0169 8.43006 12.9712 8.8164 12.8848 9.18705L13.866 9.6485ZM12.989 11.5253L12.0078 11.0638C11.29 12.0196 10.2411 12.7101 9.03256 12.9642C8.69953 13.034 8.35386 13.071 8 13.071C7.64614 13.071 7.30084 13.0344 6.96781 12.9642C5.75888 12.7105 4.70995 12.0196 3.99219 11.0638L3.01098 11.5253C3.9226 12.8364 5.33395 13.7716 6.96781 14.0518C7.30307 14.1098 7.648 14.1396 8 14.1396C8.352 14.1396 8.69693 14.1098 9.03256 14.0518C10.6664 13.7712 12.0774 12.8364 12.989 11.5253ZM2.2467 11.8851C1.86679 11.3134 1.56874 10.6824 1.37005 10.0083C1.18512 9.38209 1.08614 8.71926 1.08614 8.03325C1.08614 7.34725 1.18512 6.68441 1.37005 6.05819L0.376558 5.59077C0.132093 6.36084 0 7.18173 0 8.03325C0 8.88478 0.132093 9.70567 0.376558 10.4757C0.588279 11.1434 0.884837 11.7734 1.25358 12.3522C2.49898 14.31 4.5667 15.6895 6.96781 16V14.8989C5.0013 14.6033 3.30567 13.4761 2.2467 11.8851ZM6.96781 1.16762C7.30456 1.11681 7.64912 1.09065 8 1.09065C8.35088 1.09065 8.69581 1.11681 9.03256 1.16762C10.9991 1.46317 12.6947 2.59044 13.7533 4.1814L14.7464 3.71435C13.501 1.75648 11.4337 0.377002 9.03256 0.0665078C8.6947 0.0224183 8.34977 0 8 0C7.65023 0 7.30567 0.0224183 6.96781 0.0665078C4.5667 0.377002 2.49898 1.75648 1.25358 3.71435L2.2467 4.1814C3.30567 2.59044 5.0013 1.46317 6.96781 1.16762ZM3.88986 8.82238C3.84112 8.56681 3.81581 8.30302 3.81581 8.03325C3.81581 7.76349 3.84112 7.4997 3.88986 7.24413C4.0227 6.54056 4.33079 5.89902 4.76651 5.36696C5.32391 4.68582 6.09042 4.18402 6.96781 3.96058C7.29786 3.87651 7.64391 3.83168 8 3.83168C8.35609 3.83168 8.70251 3.87651 9.03256 3.96058C9.90958 4.18439 10.6761 4.68582 11.2335 5.36696C11.6692 5.89902 11.9773 6.54056 12.1101 7.24413C12.1589 7.4997 12.1842 7.76349 12.1842 8.03325C12.1842 8.30302 12.1589 8.56681 12.1101 8.82238C11.9773 9.52594 11.6692 10.1675 11.2335 10.6995C10.6761 11.3807 9.90958 11.8821 9.03256 12.1059C8.70251 12.19 8.35647 12.2348 8 12.2348C7.64353 12.2348 7.29786 12.19 6.96781 12.1059C6.09042 11.8825 5.32391 11.3807 4.76651 10.6995C4.33079 10.1675 4.0227 9.52594 3.88986 8.82238ZM4.89563 7.71715C4.88521 7.82103 4.88 7.92639 4.88 8.03325C4.88 8.14012 4.88521 8.24548 4.89563 8.34935C4.96819 9.07758 5.2893 9.73182 5.77228 10.2261C6.10344 10.5662 6.51126 10.8299 6.96781 10.9902C7.29079 11.1042 7.63833 11.1662 8 11.1662C8.36167 11.1662 8.70958 11.1042 9.03256 10.9902C9.48874 10.8299 9.89656 10.5658 10.2281 10.2261C10.7107 9.73182 11.0318 9.07758 11.1044 8.34935C11.1148 8.24548 11.12 8.14012 11.12 8.03325C11.12 7.92639 11.1148 7.82103 11.1044 7.71715C11.0318 6.98893 10.7107 6.33469 10.2281 5.84036C9.89656 5.50072 9.48874 5.23656 9.03256 5.07627C8.70958 4.96231 8.36205 4.90028 8 4.90028C7.63795 4.90028 7.29079 4.96231 6.96781 5.07627C6.51126 5.23656 6.10344 5.50035 5.77228 5.84036C5.2893 6.33469 4.96819 6.98893 4.89563 7.71715ZM3.99219 5.00266C4.70995 4.04689 5.75888 3.35603 6.96781 3.10233V2.01467C5.33395 2.2949 3.9226 3.23012 3.01098 4.54122C2.61879 5.10467 2.31926 5.73761 2.13395 6.41764C1.99367 6.93214 1.91888 7.47392 1.91888 8.03325C1.91888 8.59259 1.99367 9.13437 2.13395 9.64887L3.11516 9.18705C3.02884 8.8164 2.98307 8.43006 2.98307 8.03325C2.98307 7.63645 3.02884 7.2501 3.11516 6.87945C3.27665 6.18822 3.57953 5.55154 3.99219 5.00266Z" fill="white" fill-opacity="0.87"/>
</svg>
